<svg width="48" height="41" viewBox="0 0 48 41" fill="none" xmlns="http://www.w3.org/2000/svg">
<path d="M10.35 41C7.25 41 4.8 39.85 3 37.55C1.3 35.25 0.45 32.5 0.45 29.3C0.45 23.4 1.75 18.2 4.35 13.7C7.05 9.2 11.5 4.9 17.7 0.799996L20.4 4.39999C17.1 6.6 14.2 9.3 11.7 12.5C9.3 15.6 8.1 19.15 8.1 23.15L10.35 22.7C13.25 22.7 15.5 23.55 17.1 25.25C18.7 26.85 19.5 29.05 19.5 31.85C19.5 34.65 18.7 36.9 17.1 38.6C15.5 40.2 13.25 41 10.35 41ZM37.65 41C34.55 41 32.1 39.85 30.3 37.55C28.6 35.25 27.75 32.5 27.75 29.3C27.75 23.4 29.05 18.2 31.65 13.7C34.35 9.2 38.8 4.9 45 0.799996L47.7 4.39999C44.4 6.6 41.5 9.3 39 12.5C36.6 15.6 35.4 19.15 35.4 23.15L37.65 22.7C40.55 22.7 42.8 23.55 44.4 25.25C46 26.85 46.8 29.05 46.8 31.85C46.8 34.65 46 36.9 44.4 38.6C42.8 40.2 40.55 41 37.65 41Z" fill="#C6C6C6"/>
</svg>
