<svg width="30" height="17" viewBox="0 0 30 17" fill="none" xmlns="http://www.w3.org/2000/svg">
<path fill-rule="evenodd" clip-rule="evenodd" d="M3.92198 0C1.75593 0 0 1.75078 0 3.91146V13.0451C0 15.2053 1.7426 16.9565 3.92198 16.9565H26.078C28.2441 16.9565 30 15.2057 30 13.0451V3.91146C30 1.75122 28.2574 0 26.078 0H3.92198ZM3.91304 3.91304V13.0435H7.81972C9.26398 13.0435 10.4348 11.8871 10.4348 10.4271V6.52946C10.4348 5.08445 9.26883 3.91304 7.81972 3.91304H3.91304ZM5.21739 5.21739V11.7391H7.82745C8.54707 11.7391 9.13043 11.1604 9.13043 10.435V6.52149C9.13043 5.80126 8.55305 5.21739 7.82745 5.21739H5.21739ZM14.3542 3.91304C12.9099 3.91304 11.7391 5.06942 11.7391 6.52946V10.4271C11.7391 11.8721 12.9051 13.0435 14.3542 13.0435H15.6458C17.0901 13.0435 18.2609 11.8871 18.2609 10.4271V6.52946C18.2609 5.08445 17.0949 3.91304 15.6458 3.91304H14.3542ZM14.3465 5.21739C13.6268 5.21739 13.0435 5.79615 13.0435 6.52149V10.435C13.0435 11.1553 13.6209 11.7391 14.3465 11.7391H15.6535C16.3732 11.7391 16.9565 11.1604 16.9565 10.435V6.52149C16.9565 5.80126 16.3791 5.21739 15.6535 5.21739H14.3465ZM26.0869 10.4348C26.0828 11.8912 24.9136 13.0435 23.4719 13.0435H22.1803C20.7312 13.0435 19.5652 11.8721 19.5652 10.4271V6.52946C19.5652 5.06942 20.736 3.91304 22.1803 3.91304H23.4719C24.9184 3.91304 26.0828 5.08028 26.0869 6.52174H24.7826C24.7826 5.80126 24.2052 5.21739 23.4796 5.21739H22.1726C21.4529 5.21739 20.8696 5.79615 20.8696 6.52149V10.435C20.8696 11.1553 21.4469 11.7391 22.1726 11.7391H23.4796C24.1992 11.7391 24.7826 11.1604 24.7826 10.435L26.0869 10.4348Z" fill="#157EFB"/>
</svg>
