<svg width="30" height="18" viewBox="0 0 30 18" fill="none" xmlns="http://www.w3.org/2000/svg">
<rect y="1" width="30" height="17" rx="4" fill="#D029EE"/>
<path d="M6.32031 8.7998H7.21191C7.8099 8.7998 8.24316 8.6888 8.51172 8.4668C8.78027 8.24479 8.91455 7.91536 8.91455 7.47852C8.91455 7.03451 8.76953 6.71582 8.47949 6.52246C8.18945 6.3291 7.7526 6.23242 7.16895 6.23242H6.32031V8.7998ZM6.32031 9.86328V13H5.03662V5.14746H7.25488C8.26823 5.14746 9.01839 5.33724 9.50537 5.7168C9.99235 6.09635 10.2358 6.66927 10.2358 7.43555C10.2358 8.41309 9.72738 9.10954 8.71045 9.5249L10.9287 13H9.46777L7.58789 9.86328H6.32031ZM17.4943 13L16.7102 10.8193H13.7077L12.9396 13H11.5861L14.5241 5.11523H15.9206L18.8586 13H17.4943ZM16.3718 9.71289L15.6359 7.5752C15.5822 7.43197 15.507 7.20638 15.4104 6.89844C15.3173 6.59049 15.2528 6.36491 15.217 6.22168C15.1203 6.66211 14.9789 7.14372 14.7927 7.6665L14.0837 9.71289H16.3718ZM21.7289 8.7998H22.6205C23.2185 8.7998 23.6518 8.6888 23.9203 8.4668C24.1889 8.24479 24.3231 7.91536 24.3231 7.47852C24.3231 7.03451 24.1781 6.71582 23.8881 6.52246C23.598 6.3291 23.1612 6.23242 22.5775 6.23242H21.7289V8.7998ZM21.7289 9.86328V13H20.4452V5.14746H22.6635C23.6768 5.14746 24.427 5.33724 24.914 5.7168C25.4009 6.09635 25.6444 6.66927 25.6444 7.43555C25.6444 8.41309 25.136 9.10954 24.119 9.5249L26.3373 13H24.8764L22.9965 9.86328H21.7289Z" fill="white"/>
</svg>
