<svg width="30" height="18" viewBox="0 0 30 18" fill="none" xmlns="http://www.w3.org/2000/svg">
<rect y="1" width="30" height="17" rx="4" fill="#08743B"/>
<path d="M10.4785 13H6.03662V5.14746H10.4785V6.23242H7.32031V8.37012H10.2798V9.44434H7.32031V11.9097H10.4785V13ZM18.5158 13H17.0388L15.0729 9.78809L13.091 13H11.716L14.321 8.92871L11.8825 5.14746H13.3112L15.1267 8.11768L16.9421 5.14746H18.3278L15.8732 8.9502L18.5158 13ZM23.4647 6.13574C22.7271 6.13574 22.147 6.39714 21.7245 6.91992C21.302 7.44271 21.0907 8.16423 21.0907 9.08447C21.0907 10.0477 21.293 10.7764 21.6977 11.2705C22.1059 11.7646 22.6949 12.0117 23.4647 12.0117C23.7978 12.0117 24.12 11.9795 24.4315 11.915C24.7431 11.847 25.0671 11.7611 25.4037 11.6572V12.7583C24.7878 12.991 24.0896 13.1074 23.309 13.1074C22.1596 13.1074 21.2769 12.7601 20.661 12.0654C20.0452 11.3672 19.7372 10.37 19.7372 9.07373C19.7372 8.25732 19.8858 7.54297 20.183 6.93066C20.4838 6.31836 20.9171 5.84928 21.4828 5.52344C22.0486 5.19759 22.7128 5.03467 23.4755 5.03467C24.2776 5.03467 25.0188 5.20296 25.6991 5.53955L25.2372 6.6084C24.9722 6.48307 24.6911 6.37386 24.3939 6.28076C24.1003 6.18408 23.7906 6.13574 23.4647 6.13574Z" fill="white"/>
</svg>
