<svg width="30" height="17" viewBox="0 0 30 17" fill="none" xmlns="http://www.w3.org/2000/svg">
<rect width="30" height="17" rx="4" fill="#B51763"/>
<path d="M8.02832 12L5.95801 6.03809H5.91895C5.97428 6.9235 6.00195 7.75358 6.00195 8.52832V12H4.94238V4.86133H6.58789L8.57031 10.54H8.59961L10.6406 4.86133H12.291V12H11.168V8.46973C11.168 8.11491 11.1761 7.65267 11.1924 7.08301C11.2119 6.51335 11.2282 6.16829 11.2412 6.04785H11.2021L9.05859 12H8.02832ZM19.3975 7.01953C19.3975 7.76497 19.1533 8.33626 18.665 8.7334C18.1768 9.13053 17.4818 9.3291 16.5801 9.3291H15.8379V12H14.6709V4.86133H16.7266C17.6185 4.86133 18.2858 5.04362 18.7285 5.4082C19.1745 5.77279 19.3975 6.3099 19.3975 7.01953ZM15.8379 8.34766H16.458C17.057 8.34766 17.4964 8.24349 17.7764 8.03516C18.0563 7.82682 18.1963 7.5013 18.1963 7.05859C18.1963 6.64844 18.071 6.34245 17.8203 6.14062C17.5697 5.9388 17.179 5.83789 16.6484 5.83789H15.8379V8.34766ZM25.9131 10.4424H24.9512V12H23.833V10.4424H20.5713V9.55859L23.833 4.8418H24.9512V9.49023H25.9131V10.4424ZM23.833 9.49023V7.69824C23.833 7.06022 23.8493 6.53776 23.8818 6.13086H23.8428C23.7516 6.3457 23.6084 6.60612 23.4131 6.91211L21.6406 9.49023H23.833Z" fill="white"/>
</svg>
