<svg width="19" height="17" viewBox="0 0 19 17" fill="none" xmlns="http://www.w3.org/2000/svg">
<path d="M17.8125 0.1875H1.1875C0.534375 0.1875 0 0.721875 0 1.375V15.625C0 16.2781 0.534375 16.8125 1.1875 16.8125H17.8125C18.4656 16.8125 19 16.2781 19 15.625V1.375C19 0.721875 18.4656 0.1875 17.8125 0.1875ZM16.625 14.4375H8.89378L12.2793 9.90184L16.625 11.3856V14.4375ZM16.625 8.87703L13.0625 7.65984C12.4688 7.45144 12.1624 7.3125 11.875 7.3125C11.4576 7.3125 11.1328 7.47934 10.6875 8.06419L5.92919 14.4375H2.375V2.5625H16.625V8.87703ZM5.9375 8.5C7.24909 8.5 8.3125 7.43659 8.3125 6.125C8.3125 4.81341 7.24909 3.75 5.9375 3.75C4.62591 3.75 3.5625 4.81341 3.5625 6.125C3.5625 7.43659 4.62591 8.5 5.9375 8.5Z" fill="white"/>
</svg>
