<svg width="24" height="24" viewBox="0 0 24 24" fill="none" xmlns="http://www.w3.org/2000/svg">
<path fill-rule="evenodd" clip-rule="evenodd" d="M11.9595 0C5.35443 0 0 5.35443 0 11.9595C0 18.5645 5.35443 23.9189 11.9595 23.9189C18.5645 23.9189 23.9189 18.5645 23.9189 11.9595C23.9189 5.35443 18.5645 0 11.9595 0ZM17.92 8.03437C18.3807 8.03437 18.4847 8.28169 18.3807 8.62175C18.2183 9.40112 16.8701 11.4685 16.4525 12.1088C16.3731 12.2305 16.3274 12.3006 16.3297 12.3006C16.1663 12.5789 16.1068 12.7025 16.3297 13.0117C16.4103 13.126 16.5812 13.3004 16.7765 13.4997C16.9774 13.7047 17.2041 13.9361 17.3849 14.1555C18.0389 14.9284 18.5442 15.5776 18.6779 16.0259C18.7968 16.4742 18.5888 16.706 18.1429 16.706H16.6121C16.2064 16.706 15.9973 16.4637 15.5517 15.9473C15.3606 15.7259 15.126 15.4541 14.8138 15.1294C13.9072 14.2174 13.5059 14.0937 13.283 14.0937C12.9709 14.0937 12.8817 14.171 12.8817 14.6347V16.0723C12.8817 16.4587 12.7628 16.6906 11.782 16.6906C10.162 16.6906 8.36368 15.6704 7.10041 13.7691C5.19806 10.9867 4.67789 8.88453 4.67789 8.46718C4.67789 8.23531 4.7522 8.01891 5.19806 8.01891H6.74372C7.13013 8.01891 7.27875 8.18894 7.42737 8.63721C8.18534 10.9095 9.44861 12.9035 9.96878 12.9035C10.162 12.9035 10.2512 12.8107 10.2512 12.3006V9.9511C10.2145 9.28327 9.99094 8.99229 9.82519 8.77653C9.72239 8.64271 9.64182 8.53782 9.64182 8.38989C9.64182 8.2044 9.79044 8.01891 10.0282 8.01891H12.4359C12.7628 8.01891 12.8817 8.2044 12.8817 8.60629V11.7751C12.8817 12.1151 13.0155 12.2388 13.1195 12.2388C13.3127 12.2388 13.4762 12.1151 13.8329 11.7442C14.9327 10.4612 15.7204 8.48264 15.7204 8.48264C15.8244 8.25077 16.0028 8.03437 16.3892 8.03437H17.92Z" fill="white"/>
</svg>
