<svg width="24" height="24" viewBox="0 0 24 24" fill="none" xmlns="http://www.w3.org/2000/svg">
<path fill-rule="evenodd" clip-rule="evenodd" d="M11.8175 0C5.29089 0 0 5.29089 0 11.8175C0 18.3442 5.29089 23.6351 11.8175 23.6351C18.3442 23.6351 23.6351 18.3442 23.6351 11.8175C23.6351 5.29089 18.3442 0 11.8175 0ZM16.7415 7.75486C17.2839 7.90369 17.711 8.34224 17.856 8.89914C18.1194 9.90846 18.1194 12.0144 18.1194 12.0144C18.1194 12.0144 18.1194 14.1203 17.856 15.1297C17.711 15.6866 17.2839 16.1252 16.7415 16.2741C15.7585 16.5445 11.8167 16.5445 11.8167 16.5445C11.8167 16.5445 7.87489 16.5445 6.89188 16.2741C6.34949 16.1252 5.92234 15.6866 5.77738 15.1297C5.51403 14.1203 5.51403 12.0144 5.51403 12.0144C5.51403 12.0144 5.51403 9.90846 5.77738 8.89914C5.92234 8.34224 6.34949 7.90369 6.89188 7.75486C7.87489 7.48438 11.8167 7.48438 11.8167 7.48438C11.8167 7.48438 15.7585 7.48438 16.7415 7.75486Z" fill="#FF0000"/>
<path d="M10.6348 14.1814V10.2422L13.7861 12.2119L10.6348 14.1814Z" fill="#FF0000"/>
</svg>
