<svg width="24" height="24" viewBox="0 0 24 24" fill="none" xmlns="http://www.w3.org/2000/svg">
<path d="M0 11.8363C0 5.29928 5.29928 0 11.8363 0C18.3733 0 23.6726 5.29928 23.6726 11.8363C23.6726 18.3733 18.3733 23.6726 11.8363 23.6726C5.29928 23.6726 0 18.3733 0 11.8363Z" fill="#31AFD8"/>
<path d="M18.5365 9.54873C18.4733 10.9313 17.5077 12.824 15.6397 15.227C13.7086 17.7361 12.0746 18.9912 10.7386 18.9912C9.91033 18.9912 9.2098 18.2275 8.63736 16.6988C8.25524 15.2976 7.87344 13.8965 7.49116 12.4953C7.06596 10.9675 6.6103 10.2027 6.12253 10.2027C6.01623 10.2027 5.64443 10.4263 5.00778 10.8715L4.33984 10.0109C5.04086 9.39526 5.73222 8.77941 6.41244 8.16274C7.34735 7.35526 8.04968 6.93022 8.51746 6.88747C9.62239 6.78117 10.3028 7.53657 10.5581 9.15367C10.8341 10.8987 11.0252 11.9838 11.1324 12.4085C11.4514 13.8562 11.8021 14.5794 12.1849 14.5794C12.4818 14.5794 12.9286 14.1099 13.5242 13.1704C14.1186 12.2316 14.4373 11.5172 14.4802 11.0261C14.5652 10.2158 14.2465 9.80965 13.5242 9.80965C13.1842 9.80965 12.8335 9.88794 12.4728 10.0426C13.1711 7.75654 14.5046 6.64621 16.4731 6.7096C17.9324 6.75235 18.6208 7.69872 18.5365 9.54873Z" fill="#FFFFFE"/>
</svg>
