<svg width="24" height="24" viewBox="0 0 24 24" fill="none" xmlns="http://www.w3.org/2000/svg">
<path d="M0 11.8363C0 5.29928 5.29928 0 11.8363 0C18.3733 0 23.6726 5.29928 23.6726 11.8363C23.6726 18.3733 18.3733 23.6726 11.8363 23.6726C5.29928 23.6726 0 18.3733 0 11.8363Z" fill="#005FF9"/>
<path fill-rule="evenodd" clip-rule="evenodd" d="M4.93164 11.8165C4.93164 8.0202 8.02892 4.93164 11.836 4.93164C15.6432 4.93164 18.7405 8.0202 18.7405 11.8165C18.7405 12.3544 18.6956 12.7897 18.595 13.2267L18.5936 13.234C18.5933 13.2353 18.5434 13.4367 18.5158 13.5246C18.3452 14.0688 18.0363 14.5221 17.6223 14.8354C17.221 15.1393 16.7233 15.3067 16.221 15.3067C16.159 15.3067 16.0965 15.3042 16.0353 15.2993C15.322 15.2422 14.6949 14.8679 14.3103 14.2711C13.6489 14.9343 12.7714 15.2991 11.836 15.2991C9.91034 15.2991 8.34366 13.7369 8.34366 11.8165C8.34366 9.89628 9.91034 8.33405 11.836 8.33405C13.7617 8.33405 15.3284 9.89628 15.3284 11.8165V12.9392C15.3313 13.5942 15.7721 13.862 16.1487 13.8923C16.5234 13.9211 17.022 13.7035 17.1957 12.9932C17.2814 12.6036 17.3249 12.2076 17.3249 11.8165C17.3249 8.79851 14.8626 6.34318 11.836 6.34318C8.80947 6.34318 6.34721 8.79851 6.34721 11.8165C6.34721 14.8346 8.80947 17.29 11.836 17.29C12.8896 17.29 13.9142 16.9899 14.7991 16.4222L14.815 16.412L15.7451 17.4904L15.7252 17.504C14.5757 18.2874 13.2308 18.7015 11.836 18.7015C8.02892 18.7015 4.93164 15.6129 4.93164 11.8165ZM11.8361 13.887C12.9812 13.887 13.9129 12.958 13.9129 11.816C13.9129 10.6741 12.9812 9.74512 11.8361 9.74512C10.6909 9.74512 9.75929 10.6741 9.75929 11.816C9.75929 12.958 10.6909 13.887 11.8361 13.887Z" fill="#FF9E00"/>
</svg>
