<svg width="24" height="24" viewBox="0 0 24 24" fill="none" xmlns="http://www.w3.org/2000/svg">
<path fill-rule="evenodd" clip-rule="evenodd" d="M11.8175 0C5.29089 0 0 5.29089 0 11.8175C0 18.3442 5.29089 23.6351 11.8175 23.6351C18.3442 23.6351 23.6351 18.3442 23.6351 11.8175C23.6351 5.29089 18.3442 0 11.8175 0ZM9.21706 5.55175C9.88935 5.52116 10.1042 5.51367 11.8159 5.51367H11.8139C13.5262 5.51367 13.7402 5.52116 14.4125 5.55175C15.0835 5.58247 15.5417 5.68871 15.9435 5.84457C16.3585 6.00542 16.7091 6.22076 17.0596 6.57135C17.4102 6.92168 17.6256 7.27332 17.7871 7.68786C17.942 8.08861 18.0484 8.54661 18.0799 9.21759C18.1101 9.88988 18.118 10.1047 18.118 11.8164C18.118 13.5281 18.1101 13.7424 18.0799 14.4147C18.0484 15.0854 17.942 15.5436 17.7871 15.9445C17.6256 16.3589 17.4102 16.7105 17.0596 17.0608C16.7095 17.4114 16.3583 17.6273 15.9439 17.7883C15.5429 17.9441 15.0844 18.0504 14.4134 18.0811C13.7411 18.1117 13.527 18.1192 11.8151 18.1192C10.1035 18.1192 9.88883 18.1117 9.21653 18.0811C8.54569 18.0504 8.08755 17.9441 7.68654 17.7883C7.27227 17.6273 6.92063 17.4114 6.57043 17.0608C6.21997 16.7105 6.00463 16.3589 5.84351 15.9443C5.68778 15.5436 5.58156 15.0856 5.5507 14.4146C5.52024 13.7423 5.51262 13.5281 5.51262 11.8164C5.51262 10.1047 5.5205 9.88975 5.55057 9.21745C5.58077 8.54674 5.68713 8.08861 5.84338 7.68773C6.00489 7.27332 6.22023 6.92168 6.57082 6.57135C6.92115 6.22089 7.27279 6.00555 7.68733 5.84457C8.08808 5.68871 8.54608 5.58247 9.21706 5.55175Z" fill="#DD336A"/>
<path fill-rule="evenodd" clip-rule="evenodd" d="M11.2519 6.65002C11.3617 6.64984 11.4798 6.64989 11.6073 6.64996L11.8173 6.65002C13.5002 6.65002 13.6996 6.65605 14.3642 6.68626C14.9787 6.71436 15.3122 6.81704 15.5344 6.90331C15.8285 7.01754 16.0382 7.1541 16.2587 7.37469C16.4793 7.59529 16.6158 7.80539 16.7303 8.09952C16.8166 8.32143 16.9194 8.65495 16.9474 9.26946C16.9776 9.93388 16.9841 10.1335 16.9841 11.8155C16.9841 13.4976 16.9776 13.6971 16.9474 14.3616C16.9193 14.9761 16.8166 15.3096 16.7303 15.5315C16.6161 15.8256 16.4793 16.0351 16.2587 16.2555C16.0381 16.4761 15.8286 16.6127 15.5344 16.7269C15.3125 16.8136 14.9787 16.916 14.3642 16.9441C13.6998 16.9743 13.5002 16.9809 11.8173 16.9809C10.1344 16.9809 9.93491 16.9743 9.2705 16.9441C8.65598 16.9157 8.32246 16.8131 8.10015 16.7268C7.80603 16.6126 7.59593 16.476 7.37534 16.2554C7.15474 16.0348 7.01818 15.8252 6.90368 15.531C6.81741 15.3091 6.7146 14.9755 6.68663 14.361C6.65643 13.6966 6.65039 13.497 6.65039 11.8139C6.65039 10.1308 6.65643 9.9323 6.68663 9.26788C6.71473 8.65337 6.81741 8.31985 6.90368 8.09768C7.01792 7.80355 7.15474 7.59345 7.37534 7.37286C7.59593 7.15226 7.80603 7.0157 8.10015 6.90121C8.32233 6.81454 8.65598 6.71212 9.2705 6.68389C9.85192 6.65763 10.0772 6.64975 11.2519 6.64844V6.65002ZM15.1837 7.69753C14.7661 7.69753 14.4273 8.0359 14.4273 8.4536C14.4273 8.87115 14.7661 9.20992 15.1837 9.20992C15.6012 9.20992 15.94 8.87115 15.94 8.4536C15.94 8.03604 15.6012 7.69727 15.1837 7.69727V7.69753ZM8.58015 11.8188C8.58015 10.0313 10.0293 8.5821 11.8167 8.58203C13.6042 8.58203 15.0531 10.0313 15.0531 11.8188C15.0531 13.6062 13.6044 15.0548 11.8169 15.0548C10.0294 15.0548 8.58015 13.6062 8.58015 11.8188Z" fill="#DD336A"/>
<path d="M11.8158 9.7168C12.976 9.7168 13.9167 10.6574 13.9167 11.8177C13.9167 12.9779 12.976 13.9186 11.8158 13.9186C10.6554 13.9186 9.71484 12.9779 9.71484 11.8177C9.71484 10.6574 10.6554 9.7168 11.8158 9.7168Z" fill="#DD336A"/>
</svg>
