<svg width="24" height="24" viewBox="0 0 24 24" fill="none" xmlns="http://www.w3.org/2000/svg">
<path d="M0 11.8363C0 5.29928 5.29928 0 11.8363 0C18.3733 0 23.6726 5.29928 23.6726 11.8363C23.6726 18.3733 18.3733 23.6726 11.8363 23.6726C5.29928 23.6726 0 18.3733 0 11.8363Z" fill="#E84352"/>
<path fill-rule="evenodd" clip-rule="evenodd" d="M6.59847 5.91797H17.0739C18.1025 5.91797 18.9379 6.75899 18.9379 7.79646V13.0003C18.9379 13.0968 18.9303 13.1918 18.9164 13.2845C18.9303 13.423 18.9379 13.5631 18.9379 13.7047C18.9379 16.6876 15.7584 19.1066 11.8361 19.1066C7.91376 19.1066 4.73438 16.6876 4.73438 13.7047C4.73438 13.5632 4.74129 13.423 4.75586 13.2845C4.74163 13.1917 4.73438 13.0968 4.73438 13.0003V7.7964C4.73438 6.75927 5.56893 5.91797 6.59847 5.91797ZM12.5205 14.8176L16.1886 11.15C16.5571 10.7811 16.5571 10.1848 16.1886 9.81657C15.821 9.4491 15.2225 9.44814 14.8552 9.81657L11.8335 12.8382L8.81206 9.81657C8.44306 9.44758 7.84669 9.44814 7.47865 9.81657C7.11106 10.1842 7.11016 10.7817 7.47865 11.15L11.1459 14.8176C11.3387 15.0104 11.5931 15.1023 11.845 15.0937C12.0894 15.0958 12.3342 15.004 12.5205 14.8176Z" fill="white"/>
</svg>
